<?xml version="1.0" encoding="UTF-8"?>
<svg id="Layer_2" xmlns="http://www.w3.org/2000/svg" viewBox="0 0 274.98 372.95">
  <defs>
    <style>
      .cls-1 {
        fill: #3ea3c6;
      }
    </style>
  </defs>
  <g id="Layer_1-2" data-name="Layer_1">
    <path class="cls-1" d="M172.99,44.84c20.05,27.64,40.03,55,59.8,82.51,21.38,28.48,38.41,61.04,41.51,97.06,11.88,119.96-133.09,195.06-225.33,115.94C.36,301.58-12.9,231.7,12.97,176.16c8.63-19.73,20.97-37.17,33.49-54.52,28.16-39.03,56.8-77.72,84.25-117.25,4.08-5.87,9.52-5.87,13.55.07,9.23,13.59,18.83,26.92,28.72,40.38M231.11,305.98c38.7-51.11,25.21-112.45-11.21-160.46-27.89-37.97-55.5-75.78-82.43-114.49-21.14,30.03-42.1,60.02-64.06,89.46-12.36,16.67-25.11,33.09-35.21,51.29-28.03,49.18-23.88,106.56,17.09,147.1,2.04,2.05,3.27,1.96,5.26-.05,7.23-7.3,11.33-15.7,11.24-26.15-.18-22.08-.12-44.16,0-66.24.02-3.39-.86-5.42-3.99-7.29-13.96-8.31-16.85-29.08-5.65-39.93,7.89-7.65,17.37-9.59,27.69-5.94,19.94,6.3,22.61,35.6,4.22,45.61-2.78,1.65-3.5,3.51-3.49,6.43.07,23.73-.06,47.46.06,71.19.11,15.99-6.68,25.56-17.66,36.48,11.37,7.35,23.13,12.8,36.59,15.92,0-30.86.01-61.47,0-92.3,0-5.86,1.62-10.93,6.32-14.88,2.73-2.3,5.06-5.05,7.73-7.42,3.28-2.92,4.64-6.38,4.61-10.77-.12-22.21-.1-44.41.02-66.62.02-3.12-.8-4.97-3.75-6.6-11.14-6.14-15.56-20.83-10.24-32.84,10.02-22.34,45.71-18,48.8,6.89,1.57,11.11-2.51,20.28-12.61,26.07-2.62,1.5-3.46,3.1-3.45,5.98.1,23.86-.06,47.71.13,71.57.05,6.67-1.79,12.12-7.01,16.5-2.64,2.21-4.91,4.84-7.41,7.21-2.75,2.61-4.12,5.8-4.12,9.51-.03,29.19.01,58.37-.06,87.56,0,2.76,1.11,3.49,3.67,3.43,6.66-.14,13.32.4,19.97-.67,5.09-.82,5.14-.59,5.14-5.78,0-20.05.04-40.1-.02-60.15-.01-5.25,1.82-9.64,5.55-13.31,5.27-5.2,10.44-10.51,15.85-15.56,3.9-3.64,5.72-7.83,5.62-13.16-.2-10.15-.31-20.31.06-30.45.17-4.71-1.14-7.46-5.43-9.96-11.01-6.43-14.63-23.26-7.89-33.99,5.87-9.33,16.55-13.91,27.53-11.78,22.92,4.78,28.33,35.69,7.37,46.9-2.59,1.45-3.5,3.15-3.47,6.06.14,13.2-.03,26.39.1,39.59.06,5.7-1.9,10.35-5.98,14.29-5.24,5.05-10.28,10.31-15.64,15.22-3.81,3.49-5.33,7.82-5.2,12.62.45,16.62.45,33.23-.08,49.84-.04,1.25-.15,2.55,1,3.61,21.72-7.05,40.18-21.22,54.44-39.53M144.88,134.67c2.88-3.96,3.66-8.76-.1-12.42-2.43-2.45-5.42-3.83-9.03-2.79-4.28,1.23-6.9,4.13-7.21,7.93-.34,4.03,1.21,7.15,4.75,9.24,4.14,2.44,7.81,1.42,11.59-1.96M184.15,181.09c-.87,4.96,4.73,11.17,9.79,10.22,4.19-.64,7.19-3.09,8.39-7.36,1-3.56-.6-6.19-3.05-8.41-5.27-4.76-12.15-2.42-15.13,5.55M87.44,202.76c3.46-4.39,2.95-10.08-1.91-13.19-8.94-5.89-19.16,6.71-10.54,14,3.73,3.28,7.24,3.17,12.45-.82Z"/>
  </g>
</svg>